<svg data-v-fde0c5aa="" xmlns="http://www.w3.org/2000/svg" viewBox="0 0 300 300" class="font"><!----><defs data-v-fde0c5aa=""><!----></defs><rect data-v-fde0c5aa="" fill="#002C73" x="0" y="0" width="300px" height="300px" class="logo-background-square"></rect><defs data-v-fde0c5aa=""><!----></defs><g data-v-fde0c5aa="" id="971569aa-8d34-486a-b8bc-fb27f150b9d0" fill="#FFD009" transform="matrix(2.2141706943511963,0,0,2.2141706943511963,38.56078911155026,128.48933046150927)"><path d="M4.63 13.94L4.63 13.94Q3.42 13.94 2.52 13.25L2.52 13.25L2.52 13.25Q1.62 12.56 1.13 11.28L1.13 11.28L1.13 11.28Q0.65 10.00 0.65 8.29L0.65 8.29L0.65 8.29Q0.65 6.58 1.13 5.30L1.13 5.30L1.13 5.30Q1.62 4.03 2.52 3.34L2.52 3.34L2.52 3.34Q3.42 2.65 4.63 2.65L4.63 2.65L4.63 2.65Q5.82 2.65 6.72 3.34L6.72 3.34L6.72 3.34Q7.62 4.03 8.11 5.30L8.11 5.30L8.11 5.30Q8.60 6.58 8.60 8.29L8.60 8.29L8.60 8.29Q8.60 10.00 8.11 11.28L8.11 11.28L8.11 11.28Q7.62 12.56 6.72 13.25L6.72 13.25L6.72 13.25Q5.82 13.94 4.63 13.94L4.63 13.94ZM4.63 12.95L4.63 12.95Q5.52 12.95 6.18 12.38L6.18 12.38L6.18 12.38Q6.85 11.81 7.21 10.76L7.21 10.76L7.21 10.76Q7.57 9.71 7.57 8.29L7.57 8.29L7.57 8.29Q7.57 6.88 7.21 5.83L7.21 5.83L7.21 5.83Q6.85 4.77 6.18 4.20L6.18 4.20L6.18 4.20Q5.52 3.63 4.63 3.63L4.63 3.63L4.63 3.63Q3.74 3.63 3.07 4.20L3.07 4.20L3.07 4.20Q2.41 4.77 2.04 5.83L2.04 5.83L2.04 5.83Q1.68 6.88 1.68 8.29L1.68 8.29L1.68 8.29Q1.68 9.71 2.04 10.76L2.04 10.76L2.04 10.76Q2.41 11.81 3.07 12.38L3.07 12.38L3.07 12.38Q3.74 12.95 4.63 12.95L4.63 12.95ZM10.27 13.78L10.27 5.63L11.27 5.63L11.27 6.96L11.31 6.96L11.31 6.96Q11.55 6.27 11.96 5.89L11.96 5.89L11.96 5.89Q12.37 5.51 12.89 5.51L12.89 5.51L12.89 5.51Q13.45 5.51 13.74 5.65L13.74 5.65L13.74 6.59L13.74 6.59Q13.35 6.47 13.09 6.47L13.09 6.47L13.09 6.47Q13.01 6.47 12.97 6.48L12.97 6.48L12.97 6.48Q12.15 6.56 11.70 7.30L11.70 7.30L11.70 7.30Q11.26 8.05 11.26 9.39L11.26 9.39L11.26 13.78L10.27 13.78ZM14.66 4.29L14.66 2.80L15.67 2.80L15.67 4.29L14.66 4.29ZM14.66 13.78L14.66 5.63L15.67 5.63L15.67 13.78L14.66 13.78ZM20.25 13.96L20.25 13.96Q19.33 13.96 18.64 13.50L18.64 13.50L18.64 13.50Q17.95 13.04 17.56 12.09L17.56 12.09L17.56 12.09Q17.18 11.14 17.18 9.74L17.18 9.74L17.18 9.74Q17.18 8.32 17.56 7.36L17.56 7.36L17.56 7.36Q17.95 6.41 18.64 5.94L18.64 5.94L18.64 5.94Q19.33 5.48 20.25 5.48L20.25 5.48L20.25 5.48Q21.15 5.48 21.84 5.94L21.84 5.94L21.84 5.94Q22.53 6.41 22.92 7.36L22.92 7.36L22.92 7.36Q23.32 8.32 23.32 9.74L23.32 9.74L23.32 9.74Q23.32 11.14 22.92 12.08L22.92 12.08L22.92 12.08Q22.53 13.03 21.84 13.49L21.84 13.49L21.84 13.49Q21.15 13.96 20.25 13.96L20.25 13.96ZM20.25 13.04L20.25 13.04Q22.36 13.04 22.36 9.74L22.36 9.74L22.36 9.74Q22.36 6.38 20.25 6.38L20.25 6.38L20.25 6.38Q19.26 6.38 18.71 7.19L18.71 7.19L18.71 7.19Q18.16 8.00 18.16 9.74L18.16 9.74L18.16 9.74Q18.16 11.45 18.71 12.24L18.71 12.24L18.71 12.24Q19.26 13.04 20.25 13.04L20.25 13.04ZM24.82 13.78L24.82 5.63L25.83 5.63L25.83 6.89L25.87 6.89L25.87 6.89Q26.19 6.23 26.66 5.85L26.66 5.85L26.66 5.85Q27.14 5.48 27.77 5.48L27.77 5.48L27.77 5.48Q28.44 5.48 28.93 5.80L28.93 5.80L28.93 5.80Q29.42 6.13 29.69 6.73L29.69 6.73L29.69 6.73Q29.95 7.34 29.95 8.18L29.95 8.18L29.95 13.78L28.96 13.78L28.96 8.28L28.96 8.28Q28.96 7.27 28.62 6.84L28.62 6.84L28.62 6.84Q28.28 6.41 27.62 6.41L27.62 6.41L27.62 6.41Q27.10 6.41 26.69 6.74L26.69 6.74L26.69 6.74Q26.28 7.06 26.04 7.65L26.04 7.65L26.04 7.65Q25.81 8.23 25.81 8.99L25.81 8.99L25.81 13.78L24.82 13.78ZM35.10 13.78L35.10 2.80L38.38 2.80L38.38 2.80Q39.22 2.80 39.83 3.16L39.83 3.16L39.83 3.16Q40.44 3.51 40.77 4.17L40.77 4.17L40.77 4.17Q41.09 4.83 41.09 5.71L41.09 5.71L41.09 5.71Q41.09 7.48 39.77 8.03L39.77 8.03L39.77 8.09L39.77 8.09Q40.29 8.20 40.68 8.55L40.68 8.55L40.68 8.55Q41.08 8.90 41.30 9.47L41.30 9.47L41.30 9.47Q41.52 10.05 41.52 10.81L41.52 10.81L41.52 10.81Q41.52 11.72 41.19 12.39L41.19 12.39L41.19 12.39Q40.85 13.06 40.25 13.42L40.25 13.42L40.25 13.42Q39.65 13.78 38.86 13.78L38.86 13.78L35.10 13.78ZM36.13 7.75L38.24 7.75L38.24 7.75Q38.72 7.75 39.12 7.50L39.12 7.50L39.12 7.50Q39.53 7.25 39.77 6.78L39.77 6.78L39.77 6.78Q40.01 6.30 40.01 5.67L40.01 5.67L40.01 5.67Q40.01 3.77 38.36 3.77L38.36 3.77L36.13 3.77L36.13 7.75ZM36.13 12.78L38.73 12.78L38.73 12.78Q39.61 12.78 40.05 12.24L40.05 12.24L40.05 12.24Q40.48 11.70 40.48 10.74L40.48 10.74L40.48 10.74Q40.48 10.10 40.24 9.63L40.24 9.63L40.24 9.63Q40.00 9.15 39.60 8.89L39.60 8.89L39.60 8.89Q39.20 8.64 38.73 8.64L38.73 8.64L36.13 8.64L36.13 12.78ZM48.41 9.63L48.41 9.63Q48.41 9.98 48.40 10.12L48.40 10.12L43.61 10.12L43.61 10.12Q43.65 10.91 43.90 11.57L43.90 11.57L43.90 11.57Q44.15 12.22 44.63 12.62L44.63 12.62L44.63 12.62Q45.10 13.02 45.80 13.02L45.80 13.02L45.80 13.02Q46.81 13.02 47.58 12.22L47.58 12.22L48.17 12.89L48.17 12.89Q47.65 13.45 47.05 13.70L47.05 13.70L47.05 13.70Q46.46 13.94 45.80 13.94L45.80 13.94L45.80 13.94Q44.74 13.94 44.02 13.34L44.02 13.34L44.02 13.34Q43.31 12.75 42.96 11.78L42.96 11.78L42.96 11.78Q42.62 10.81 42.62 9.69L42.62 9.69L42.62 9.69Q42.62 8.57 42.91 7.62L42.91 7.62L42.91 7.62Q43.20 6.67 43.86 6.07L43.86 6.07L43.86 6.07Q44.53 5.48 45.61 5.48L45.61 5.48L45.61 5.48Q46.76 5.48 47.38 6.09L47.38 6.09L47.38 6.09Q48.00 6.71 48.21 7.62L48.21 7.62L48.21 7.62Q48.41 8.52 48.41 9.63L48.41 9.63ZM45.58 6.40L45.58 6.40Q44.55 6.40 44.10 7.20L44.10 7.20L44.10 7.20Q43.65 8.00 43.61 9.26L43.61 9.26L47.50 9.26L47.50 9.26Q47.48 8.31 47.31 7.69L47.31 7.69L47.31 7.69Q47.15 7.08 46.74 6.74L46.74 6.74L46.74 6.74Q46.33 6.40 45.58 6.40L45.58 6.40ZM49.87 13.78L49.87 2.80L50.86 2.80L50.86 13.78L49.87 13.78ZM54.71 13.78L54.71 13.78Q53.85 13.78 53.44 13.28L53.44 13.28L53.44 13.28Q53.03 12.77 53.03 11.74L53.03 11.74L53.03 6.45L52.05 6.45L52.05 5.63L53.03 5.63L53.19 3.76L54.02 3.76L54.02 5.63L55.77 5.63L55.77 6.45L54.02 6.45L54.02 11.55L54.02 11.55Q54.02 12.07 54.11 12.37L54.11 12.37L54.11 12.37Q54.20 12.67 54.41 12.81L54.41 12.81L54.41 12.81Q54.61 12.95 54.97 12.95L54.97 12.95L55.60 12.95L55.60 13.78L54.71 13.78ZM60.18 13.78L60.18 2.80L61.22 2.80L61.22 12.82L64.98 12.82L64.98 13.78L60.18 13.78ZM68.62 13.96L68.62 13.96Q67.70 13.96 67.01 13.50L67.01 13.50L67.01 13.50Q66.32 13.04 65.94 12.09L65.94 12.09L65.94 12.09Q65.55 11.14 65.55 9.74L65.55 9.74L65.55 9.74Q65.55 8.32 65.94 7.36L65.94 7.36L65.94 7.36Q66.32 6.41 67.01 5.94L67.01 5.94L67.01 5.94Q67.70 5.48 68.62 5.48L68.62 5.48L68.62 5.48Q69.52 5.48 70.21 5.94L70.21 5.94L70.21 5.94Q70.90 6.41 71.30 7.36L71.30 7.36L71.30 7.36Q71.69 8.32 71.69 9.74L71.69 9.74L71.69 9.74Q71.69 11.14 71.30 12.08L71.30 12.08L71.30 12.08Q70.90 13.03 70.21 13.49L70.21 13.49L70.21 13.49Q69.52 13.96 68.62 13.96L68.62 13.96ZM68.62 13.04L68.62 13.04Q70.73 13.04 70.73 9.74L70.73 9.74L70.73 9.74Q70.73 6.38 68.62 6.38L68.62 6.38L68.62 6.38Q67.63 6.38 67.08 7.19L67.08 7.19L67.08 7.19Q66.53 8.00 66.53 9.74L66.53 9.74L66.53 9.74Q66.53 11.45 67.08 12.24L67.08 12.24L67.08 12.24Q67.63 13.04 68.62 13.04L68.62 13.04ZM75.18 13.94L75.18 13.94Q74.54 13.94 74.06 13.61L74.06 13.61L74.06 13.61Q73.58 13.29 73.31 12.68L73.31 12.68L73.31 12.68Q73.05 12.07 73.05 11.23L73.05 11.23L73.05 5.63L74.04 5.63L74.04 11.14L74.04 11.14Q74.04 11.55 74.11 11.94L74.11 11.94L74.11 11.94Q74.18 12.33 74.46 12.67L74.46 12.67L74.46 12.67Q74.74 13.00 75.33 13.00L75.33 13.00L75.33 13.00Q75.89 13.00 76.31 12.68L76.31 12.68L76.31 12.68Q76.73 12.36 76.96 11.77L76.96 11.77L76.96 11.77Q77.18 11.18 77.18 10.42L77.18 10.42L77.18 5.63L78.18 5.63L78.18 13.78L77.17 13.78L77.17 12.52L77.12 12.52L77.12 12.52Q76.79 13.21 76.32 13.58L76.32 13.58L76.32 13.58Q75.85 13.94 75.18 13.94L75.18 13.94ZM80.21 13.78L80.21 5.63L81.22 5.63L81.22 6.89L81.27 6.89L81.27 6.89Q81.58 6.23 82.06 5.85L82.06 5.85L82.06 5.85Q82.53 5.48 83.16 5.48L83.16 5.48L83.16 5.48Q83.83 5.48 84.32 5.80L84.32 5.80L84.32 5.80Q84.81 6.13 85.08 6.73L85.08 6.73L85.08 6.73Q85.34 7.34 85.34 8.18L85.34 8.18L85.34 13.78L84.35 13.78L84.35 8.28L84.35 8.28Q84.35 7.27 84.01 6.84L84.01 6.84L84.01 6.84Q83.67 6.41 83.02 6.41L83.02 6.41L83.02 6.41Q82.50 6.41 82.08 6.74L82.08 6.74L82.08 6.74Q81.67 7.06 81.44 7.65L81.44 7.65L81.44 7.65Q81.20 8.23 81.20 8.99L81.20 8.99L81.20 13.78L80.21 13.78ZM91.72 5.63L92.72 5.63L92.72 13.30L92.72 13.30Q92.72 15.05 91.95 15.91L91.95 15.91L91.95 15.91Q91.18 16.78 89.74 16.78L89.74 16.78L89.74 16.78Q89.08 16.78 88.48 16.57L88.48 16.57L88.48 16.57Q87.89 16.36 87.46 15.95L87.46 15.95L87.46 15.95Q87.04 15.54 86.87 14.96L86.87 14.96L87.66 14.56L87.66 14.56Q87.92 15.24 88.49 15.58L88.49 15.58L88.49 15.58Q89.07 15.93 89.75 15.93L89.75 15.93L89.75 15.93Q90.73 15.93 91.23 15.29L91.23 15.29L91.23 15.29Q91.74 14.66 91.74 13.30L91.74 13.30L91.74 12.46L91.74 12.46Q91.39 13.08 90.83 13.40L90.83 13.40L90.83 13.40Q90.26 13.72 89.54 13.72L89.54 13.72L89.54 13.72Q88.61 13.72 87.96 13.15L87.96 13.15L87.96 13.15Q87.31 12.58 86.99 11.64L86.99 11.64L86.99 11.64Q86.67 10.69 86.67 9.56L86.67 9.56L86.67 9.56Q86.67 8.44 86.99 7.51L86.99 7.51L86.99 7.51Q87.32 6.58 87.99 6.03L87.99 6.03L87.99 6.03Q88.66 5.48 89.64 5.48L89.64 5.48L89.64 5.48Q90.27 5.48 90.78 5.72L90.78 5.72L90.78 5.72Q91.30 5.96 91.66 6.59L91.66 6.59L91.72 6.59L91.72 5.63ZM89.82 12.84L89.82 12.84Q90.86 12.84 91.37 11.99L91.37 11.99L91.37 11.99Q91.87 11.14 91.87 9.74L91.87 9.74L91.87 9.74Q91.87 8.83 91.65 8.06L91.65 8.06L91.65 8.06Q91.44 7.29 90.96 6.81L90.96 6.81L90.96 6.81Q90.49 6.34 89.75 6.34L89.75 6.34L89.75 6.34Q89.04 6.34 88.58 6.77L88.58 6.77L88.58 6.77Q88.11 7.21 87.89 7.94L87.89 7.94L87.89 7.94Q87.66 8.68 87.66 9.60L87.66 9.60L87.66 9.60Q87.66 10.50 87.89 11.23L87.89 11.23L87.89 11.23Q88.12 11.96 88.60 12.40L88.60 12.40L88.60 12.40Q89.08 12.84 89.82 12.84L89.82 12.84ZM100.01 9.63L100.01 9.63Q100.01 9.98 100.00 10.12L100.00 10.12L95.21 10.12L95.21 10.12Q95.25 10.91 95.50 11.57L95.50 11.57L95.50 11.57Q95.74 12.22 96.22 12.62L96.22 12.62L96.22 12.62Q96.70 13.02 97.40 13.02L97.40 13.02L97.40 13.02Q98.41 13.02 99.18 12.22L99.18 12.22L99.77 12.89L99.77 12.89Q99.24 13.45 98.65 13.70L98.65 13.70L98.65 13.70Q98.05 13.94 97.40 13.94L97.40 13.94L97.40 13.94Q96.34 13.94 95.62 13.34L95.62 13.34L95.62 13.34Q94.90 12.75 94.56 11.78L94.56 11.78L94.56 11.78Q94.22 10.81 94.22 9.69L94.22 9.69L94.22 9.69Q94.22 8.57 94.51 7.62L94.51 7.62L94.51 7.62Q94.79 6.67 95.46 6.07L95.46 6.07L95.46 6.07Q96.13 5.48 97.21 5.48L97.21 5.48L97.21 5.48Q98.36 5.48 98.98 6.09L98.98 6.09L98.98 6.09Q99.60 6.71 99.80 7.62L99.80 7.62L99.80 7.62Q100.01 8.52 100.01 9.63L100.01 9.63ZM97.18 6.40L97.18 6.40Q96.15 6.40 95.70 7.20L95.70 7.20L95.70 7.20Q95.25 8.00 95.21 9.26L95.21 9.26L99.09 9.26L99.09 9.26Q99.07 8.31 98.91 7.69L98.91 7.69L98.91 7.69Q98.75 7.08 98.33 6.74L98.33 6.74L98.33 6.74Q97.92 6.40 97.18 6.40L97.18 6.40Z"></path></g><!----><!----></svg>